<?xml version="1.0" standalone="no"?>
<!DOCTYPE svg PUBLIC "-//W3C//DTD SVG 1.1//EN" "http://www.w3.org/Graphics/SVG/1.1/DTD/svg11.dtd" >
<!--
2013-9-30: Created.
-->
<svg>
<metadata>
Created by iconfont
</metadata>
<defs>

<font id="iconfont" horiz-adv-x="1024" >
  <font-face
    font-family="iconfont"
    font-weight="500"
    font-stretch="normal"
    units-per-em="1024"
    ascent="896"
    descent="-128"
  />
    <missing-glyph />
    
    <glyph glyph-name="homefill" unicode="&#59067;" d="M947.2 473.6l-374.4 307.2c-32 25.6-86.4 25.6-118.4 0l-377.6-310.4c-12.8-6.4-16-22.4-9.6-35.2 3.2-12.8 16-19.2 28.8-19.2h32v-364.8c0-48 35.2-83.2 83.2-83.2h204.8c19.2 0 32 12.8 32 32v147.2c0 22.4 35.2 44.8 64 44.8s67.2-22.4 67.2-44.8v-147.2c0-19.2 12.8-32 32-32h208c48 0 80 32 80 83.2v364.8h32c12.8 0 25.6 9.6 28.8 22.4 3.2 12.8 0 25.6-12.8 35.2z"  horiz-adv-x="1024" />

    
    <glyph glyph-name="dianziping" unicode="&#58886;" d="M338.292364-45.381818V56.785455h0.884363v8.610909h342.341818v-110.778182h228.026182v-54.178909h-0.884363v-8.610909H119.156364V-53.992727h0.884363v8.610909h218.298182zM0 896h1022.603636v-737.931636H0V896z"  horiz-adv-x="1024" />

    
    <glyph glyph-name="chewei" unicode="&#58887;" d="M1687.04 115.456a223.616 223.616 0 1 0-447.232 0 223.616 223.616 0 0 0 447.232 0z m-1025.152 0a223.616 223.616 0 1 0-447.232 0 223.616 223.616 0 0 0 447.232 0zM38.08 421.632l75.712 227.072s29.76 42.24 65.344 82.56c43.52 49.28 63.872 76.608 93.312 93.376C321.536 852.608 409.6 886.08 464.64 892.928c55.04 6.912 474.752 0 474.752 0S1018.496 889.6 1059.776 872.32c41.28-17.28 116.992-48.192 161.728-82.56 44.672-34.432 144.448-120.448 175.424-141.056 30.976-20.672 47.616-39.424 85.504-49.792 37.824-10.24 196.608-43.072 234.432-60.288 37.824-17.216 106.624-30.976 127.296-68.8 20.608-37.888 72.256-116.992 72.256-209.92v-147.84s-6.912-30.976-17.28-41.344c-10.24-10.24-51.52-13.76-51.52-13.76h-120.448s30.976 313.088-272.128 315.84c-282.112 2.56-257.664-315.84-257.664-315.84h-495.36s41.28 320-264.896 316.672c-295.808-3.2-257.92-316.672-257.92-316.672H86.208s-37.824 10.368-58.496 34.432C7.104 115.456 0.256 170.496 0.256 170.496V373.632l37.824 48z m748.8 113.536h595.2v30.976s-31.04 41.28-75.712 75.648c-44.8 34.432-116.992 86.016-165.12 120.448-48.192 34.368-141.056 68.8-141.056 68.8H786.816v-295.872z m-92.864 0V831.04H399.296s-111.232-79.168-149.12-116.992c-37.76-37.824-74.496-178.88-74.496-178.88h518.336z"  horiz-adv-x="1920" />

    
    <glyph glyph-name="kuangquanshui" unicode="&#58888;" d="M428.330806 769.875837h176.895705a17.834637 17.834637 0 0 1 18.04797 17.493304V878.462323c0 9.685317-8.106653 17.535971-18.04797 17.53597H428.373473a17.79197 17.79197 0 0 1-18.04797-17.493304v-91.178515c0-9.599984 8.106653-17.450638 18.04797-17.450637z m339.370101-139.391768S657.194425 701.438618 606.890509 722.259916H413.86683S292.949698 666.878675 258.560422 628.478739v-227.540954s86.655856-68.010553-2.559995-135.765107v-330.580782l58.794568-54.613243h381.780697l71.125215 56.575906v324.479459c-62.29323 24.703959-70.143883 113.322478 0 141.909097V630.484069zM300.501686 542.761549V610.132103c18.986635 39.466601 91.86118 69.845217 127.573121 69.845217L599.039855 680.10532c36.522606-0.639999 107.263821-35.327941 127.402454-69.973217v-67.413221c-7.039988 0-19.967967 24.917292-106.367822 24.917292-89.898517 0-131.797114-51.029248-211.967647-51.029248-76.543872 0-99.157168 26.154623-107.690487 26.154623z"  horiz-adv-x="1024" />

    
    <glyph glyph-name="dianhua" unicode="&#58889;" d="M592.341803 819.990353a39.30447 39.30447 0 0 0-0.393832-0.039384h-0.787665A38.20174 38.20174 0 0 0 551.383237 856.380464a38.20174 38.20174 0 0 0 36.114428 39.462003c1.023964 0 101.648135 5.553036 205.895563-46.944818a387.649202 387.649202 0 0 0 148.080971-129.531467c46.157154-68.054233 73.922336-153.673391 82.350349-254.730777a38.08359 38.08359 0 0 0-35.051081-40.958566c-1.142114-0.275683-2.126695-0.275683-3.150659-0.275683a38.241123 38.241123 0 0 0-38.241123 34.775399c-13.075235 156.745283-75.733965 264.891652-186.243328 321.682279-81.523301 41.903764-161.786337 40.328435-168.75717 40.092135zM383.413731 255.234734c89.675631-89.557481 193.45046-175.176638 234.56656-134.296838 58.720406 58.838556 94.952984 109.957998 224.405684 5.946869 129.492083-104.089895 30.010027-173.483159-26.898751-230.391936-65.612473-65.691239-310.458057-3.386958-552.507431 238.504883C21.048568 376.928937-41.09818 621.695754 24.47491 687.386994c56.869394 57.026927 126.420191 156.4696 230.391936 26.898751 104.011129-129.57085 52.852304-165.803428-5.868102-224.484451-40.958566-41.116099 44.660591-144.890929 134.375604-234.56656z m287.103798 128.783185c-20.282367 0-37.177776 16.54096-38.20174 37.650375-4.607839 93.81087-63.288862 115.195968-88.336601 119.96134l-0.905814 0.118149c-20.873116 4.214006-34.381566 24.968972-30.325092 46.47222 4.095857 21.582014 24.181308 35.563063 45.015039 31.349057h0.275683c27.489499-5.277354 55.136532-18.116289 77.74251-36.075045 31.073374-24.69329 68.920665-72.110707 73.134671-157.729864 1.023964-21.77893-15.241313-40.407201-36.311345-41.628082-0.787665-0.11815-1.417797-0.11815-2.047928-0.11815zM628.180549 859.13729c0-0.393832 0-0.393832 0 0 0-0.393832 0-0.393832 0 0zM831.004219 384.017919c-17.958756 0-33.318218 14.886864-35.208613 34.775399-13.74475 145.481677-85.264708 226.965595-212.748247 242.206907-19.494702 2.362994-33.593901 21.503247-31.467206 42.848962 2.126695 21.306331 19.652235 36.705177 39.146938 34.381566 22.448445-2.717443 90.581445-10.869773 153.043259-58.208425A280.487414 280.487414 0 0 0 822.73374 585.26626c23.196727-44.227375 37.847291-97.473512 43.518477-158.399379 2.008545-21.345714-12.208803-40.367818-31.703506-42.533896-1.063347-0.275683-2.362994-0.275683-3.544492-0.275682z"  horiz-adv-x="1024" />

    
    <glyph glyph-name="maike" unicode="&#58890;" d="M891.259259 360.106667v26.055111h-77.482666v-26.093037c0-156.520296-116.167111-284.823704-265.746963-303.255704v128.265482c94.701037 17.370074 166.798222 101.072593 166.798222 200.021333V691.579259C714.827852 804.67437 624.45037 896 512.530963 896c-111.881481 0-202.258963-91.32563-202.258963-204.382815v-306.517333c0-101.110519 70.997333-184.813037 166.760296-200.021333v-130.465186c-150.641778 17.408-267.908741 146.773333-267.90874 303.29363V384H132.740741v-26.093037c0-198.921481 151.703704-363.064889 344.291555-381.534815v-27.192889H274.773333V-128h512.113778v77.179259h-239.919407v27.192889C739.555556-2.996148 891.259259 160.085333 891.259259 360.068741z"  horiz-adv-x="1024" />

    
    <glyph glyph-name="dianxin" unicode="&#58891;" d="M23.272727-82.757818l977.454546 97.745454v146.478546l-977.454546-97.745455v-146.478545zM658.478545 652.288l-103.470545-47.941818c3.630545-16.709818 5.725091-33.885091 5.725091-51.898182 0-134.749091-109.707636-244.503273-244.224-244.503273-73.541818 0-138.938182 33.373091-183.761455 84.992L23.272727 338.199273v-176.733091l977.454546 96.954182v173.614545l-342.248728 220.253091zM316.509091 405.969455a146.525091 146.525091 0 0 1 59.438545 280.482909l37.236364 147.549091A49.058909 49.058909 0 0 1 377.809455 893.346909a48.733091 48.733091 0 0 1-59.438546-35.467636l-41.704727-164.724364c-61.486545-17.454545-107.101091-73.216-107.101091-140.474182A147.269818 147.269818 0 0 1 316.509091 405.969455z"  horiz-adv-x="1024" />

    
    <glyph glyph-name="tiaofu" unicode="&#58892;" d="M1160.030316 799.366737A45.648842 45.648842 0 0 0 1185.684211 758.029474v-750.915369a46.187789 46.187789 0 0 0-17.946948-36.432842c-66.775579-51.307789-167.666526-79.656421-284.402526-79.656421-111.023158 0-203.344842 25.438316-281.923369 77.824-75.237053 50.122105-149.072842 83.536842-265.269894 83.536842-108.220632 0-197.470316-32.875789-243.334737-66.937263 0 0-92.16-70.224842-92.16 68.985263V758.029474c0 12.503579 5.173895 24.576 14.22821 33.253052C69.146947 843.021474 189.493895 895.245474 336.087579 895.245474c147.402105 0 239.130947-47.427368 316.362105-98.950737 63.973053-42.576842 137.269895-62.356211 230.885053-62.356211 95.178105 0 178.283789 22.096842 228.136421 60.52379 14.012632 10.778947 32.714105 12.611368 48.505263 4.904421zM422.211368 566.703158a26.947368 26.947368 0 0 1-26.947368-26.947369v-12.018526a26.947368 26.947368 0 0 1 26.947368-26.947368h407.336421a26.947368 26.947368 0 0 1 26.947369 26.947368V539.755789a26.947368 26.947368 0 0 1-26.947369 26.947369H422.157474z m0-263.545263a26.947368 26.947368 0 0 1-26.947368-26.947369v-12.018526a26.947368 26.947368 0 0 1 26.947368-26.947368h407.336421a26.947368 26.947368 0 0 1 26.947369 26.947368v11.964632a26.947368 26.947368 0 0 1-26.947369 26.947368H422.157474z"  horiz-adv-x="1185" />

    
    <glyph glyph-name="chashui" unicode="&#58893;" d="M1378.49344 612.693333c-33.735111 0-65.877333-6.826667-95.402667-17.749333a498.574222 498.574222 0 0 1-78.563555 58.254222c-4.209778 2.56-7.623111 5.12-11.832889 7.623111h-608.142222c-6.826667-3.413333-12.686222-7.623111-19.456-11.832889C494.155662 604.16 437.551218 546.702222 401.995662 479.175111a375.466667 375.466667 0 0 1-25.315555-59.960889 350.776889 350.776889 0 0 1-18.602667-111.502222c0-37.148444 5.916444-72.647111 16.896-106.382222 9.272889-28.728889 21.959111-56.604444 38.001778-82.830222 40.561778-67.527111 102.229333-124.984889 178.232889-167.253334h-0.853334v-44.771555c0-16.042667 13.539556-29.582222 29.582223-29.582223h537.201777c16.042667 0 29.582222 13.539556 29.582223 29.582223v44.771555h-0.853334c58.311111 32.142222 108.942222 74.353778 147.000889 122.481778 15.189333-2.503111 30.378667-4.209778 45.568-4.209778a271.473778 271.473778 0 0 1 271.189333 271.132445c0.796444 150.357333-121.628444 271.985778-271.189333 271.985777z m2.56-463.758222c24.462222 48.981333 38.001778 103.025778 38.001778 158.776889 0 81.123556-27.875556 157.127111-76.003556 222.151111 11.832889 2.56 23.665778 3.413333 36.295111 3.413333a192.512 192.512 0 0 0 192.625778-192.625777c-0.853333-104.675556-86.186667-190.862222-190.919111-191.715556zM1195.19744 728.405333c0 31.232-115.712 56.547556-266.069333 60.814223a60.586667 60.586667 0 0 1-39.708445 106.382222 60.586667 60.586667 0 0 1-39.651555-106.382222c-150.357333-4.266667-266.126222-29.582222-266.126223-60.871112v-15.189333h612.408889v15.246222h-0.853333zM331.96544 307.768889c0 48.924444 9.272889 96.256 27.022222 140.174222 6.769778 18.602667 16.042667 35.498667 25.315556 53.191111-104.675556 130.958222-232.277333 150.357333-238.193778 151.210667a27.192889 27.192889 0 0 1-19.399111-5.063111L10.998329 561.152c-9.329778-6.826667-12.686222-18.602667-9.329778-29.582222a25.6 25.6 0 0 1 25.372445-17.749334c114.858667 0 207.758222-151.210667 239.843555-247.466666 22.016-66.730667 69.290667-105.585778 104.789333-127.544889a361.813333 361.813333 0 0 0-32.995555 102.172444 350.549333 350.549333 0 0 0-6.712889 66.730667z"  horiz-adv-x="1650" />

    
    <glyph glyph-name="lvzhi" unicode="&#58894;" d="M464.34181 538.31867c30.207698 30.165032 10.111899 164.051693-84.905818 259.026743C284.546275 892.320463 152.323597 914.165578 120.494582 882.251231c-31.957014-31.914348-10.111899-164.094359 84.863151-259.069409s228.861711-115.070849 259.026743-84.905818zM848.039306 623.181822c94.97505 94.97505 116.820165 227.155062 84.905818 259.069409-31.914348 31.914348-164.094359 10.069233-259.069409-84.905818s-115.070849-228.861711-84.905818-259.026743c30.207698-30.207698 164.094359-10.111899 259.069409 84.905818zM462.592494 426.66112H114.222644A50.346163 50.346163 0 0 1 64.00448 376.442956v-148.179852h534.394656l-346.449869-42.367576a40.532928 40.532928 0 0 1-31.957014-46.378203l36.99163-223.229768a40.532928 40.532928 0 0 1 40.020934-33.919661h434.043659a40.532928 40.532928 0 0 1 40.191598 35.028983l42.66624 310.866225h95.31638a50.346163 50.346163 0 0 1 50.175499 50.218165V426.66112H462.592494z"  horiz-adv-x="1024" />

    
    <glyph glyph-name="zhuoqian" unicode="&#58895;" d="M365.714286 896h1082.294857L1682.285714-128H599.990857L365.714286 896z m402.285714-292.571429a36.571429 36.571429 0 0 1 0-73.142857h438.857143a36.571429 36.571429 0 0 1 0 73.142857h-438.857143z m146.285714-292.571428a36.571429 36.571429 0 0 1 0-73.142857h438.857143a36.571429 36.571429 0 0 1 0 73.142857h-438.857143zM219.428571 896l219.428572-1024H0L219.428571 896z"  horiz-adv-x="1682" />

    
    <glyph glyph-name="xuanzhuanmen" unicode="&#58896;" d="M734.117647 463.345269h-64.040921C664.961637 650.88491 600.347826 896 488.347826 896c-49.923274 0-118.424552-37.769821-161.923274-216.306905a47.099744 47.099744 0 1 1 91.498722-22.424553c25.616368 105.575448 57.616368 138.230179 67.846547 143.386189 26.230179-21.769821 86.383632-160.654731 90.230179-339.846547h-80a15.345269 15.345269 0 0 1-10.230179-26.2711l122.230179-114.578005a15.345269 15.345269 0 0 1 21.769821 0l115.805627 119.693095a15.345269 15.345269 0 0 1-11.457801 23.734015z m-245.769821-591.345269c-40.347826 0-99.232737 26.189258-142.731458 151.652174a47.058824 47.058824 0 0 0 88.961637 30.731458c25.575448-72.961637 49.923274-88.306905 53.769821-88.306906 3.805627 0 42.84399 27.498721 71.652174 149.769821a47.058824 47.058824 0 1 0 91.539642-21.769821c-34.578005-145.268542-90.88491-222.076726-163.191816-222.076726zM810.230179 518.383632a47.099744 47.099744 0 0 1-22.383632-91.498722c115.846547-28.808184 142.076726-64 142.076727-69.76982 0-25.616368-143.345269-101.11509-417.923274-101.11509-45.421995 0-89.616368 0-132.460358 7.038363l4.501279 76.808184a15.345269 15.345269 0 0 1-26.2711 11.498722L234.88491 237.421995a15.345269 15.345269 0 0 1 0-21.769821l113.923274-120.961637a15.345269 15.345269 0 0 1 26.884911 10.230179v64.040921c44.153453-3.846547 88.961637-7.038363 135.038363-7.038363 246.383632 0 512 60.767263 512 192 1.268542 52.460358-35.846547 120.306905-212.460358 164.501278zM148.542199 218.84399a47.345269 47.345269 0 0 0-20.460358 3.232736C22.997442 264.961637 0 320 0 357.074169c0 128 234.88491 181.769821 436.501279 192a47.058824 47.058824 0 1 0 4.501279-94.117647c-242.618926-12.112532-346.925831-78.035806-346.925832-97.882353 0 0 12.153453-24.306905 71.693095-47.345269a46.731458 46.731458 0 0 0-17.268542-90.88491z"  horiz-adv-x="1024" />

    
    <glyph glyph-name="xianhua" unicode="&#58897;" d="M92.387413 266.282667a300.629333 300.629333 0 0 0 144.256-3.669334c47.914667-12.928 90.752-37.589333 128.554667-73.984 18.176-18.176 33.578667-38.613333 46.165333-61.354666 12.586667-22.741333 22.186667-46.336 28.842667-70.826667 6.656-24.490667 10.154667-49.322667 10.496-74.496a326.272 326.272 0 0 0-6.826667-72.405333c-47.573333-10.496-95.488-7.68-143.744 8.405333a323.84 323.84 0 0 0-128 79.744c-37.76 36.352-63.146667 78.506667-76.074666 126.421333a292.437333 292.437333 0 0 0-3.669334 142.165334z m838.314667 0a292.437333 292.437333 0 0 0-3.669333-142.165334c-12.928-47.914667-37.973333-90.026667-75.008-126.421333a243.925333 243.925333 0 0 0-64-45.653333 413.312 413.312 0 0 0-77.653334-29.354667c-27.306667-7.381333-55.466667-12.245333-84.48-14.72-29.013333-2.432-57.514667-2.986667-85.504-1.578667H479.587413v394.496a313.173333 313.173333 0 0 0-113.322666 33.578667 336.554667 336.554667 0 0 0-75.008 52.48 338.645333 338.645333 0 0 0-58.24 70.314667 350.122667 350.122667 0 0 0-37.76 83.925333 324.608 324.608 0 0 0-13.653334 94.421333c0 44.074667 8.746667 86.741333 26.24 128a335.274667 335.274667 0 0 0 92.842667-38.314666c28.330667-17.109333 53.717333-37.930667 76.074667-62.421334a321.962667 321.962667 0 0 0 46.677333 130.645334A343.253333 343.253333 0 0 0 517.304747 892.672a325.973333 325.973333 0 0 0 96-100.736c24.832-40.533333 40.064-84.992 45.653333-133.248a363.093333 363.093333 0 0 0 76.586667 63.488 324.821333 324.821333 0 0 0 93.397333 39.338667 333.226667 333.226667 0 0 0 24.106667-125.909334 332.8 332.8 0 0 0-13.098667-93.397333c-8.746667-30.08-21.333333-58.026667-37.76-83.925333a362.112 362.112 0 0 0-58.24-70.272 325.717333 325.717333 0 0 0-74.496-52.48v-1.066667a353.706667 353.706667 0 0 0-60.330667-23.594667c-20.650667-5.973333-42.154667-9.6-64.512-11.008v-282.24c8.362667 28.672 21.333333 56.149333 38.826667 82.346667 17.493333 26.24 37.76 50.56 60.842667 72.96a319.061333 319.061333 0 0 0 62.421333 48.213333 370.602667 370.602667 0 0 0 72.96 33.621334 324.48 324.48 0 0 0 76.544 15.701333 262.570667 262.570667 0 0 0 74.496-4.181333z"  horiz-adv-x="1024" />

    
    <glyph glyph-name="touying" unicode="&#58898;" d="M170.666667-39.025778c0-45.112889 36.579556-81.692444 81.692444-81.692444h54.442667c45.112889 0 81.692444 36.579556 81.692444 81.692444V42.666667H170.666667v-81.692445zM910.222222-39.025778c0-45.112889 36.579556-81.692444 81.692445-81.692444h54.442666c45.112889 0 81.692444 36.579556 81.692445 81.692444V42.666667H910.222222v-81.692445zM1143.694222 896H163.384889A163.384889 163.384889 0 0 1 0 732.615111v-490.154667a163.441778 163.441778 0 0 1 163.384889-163.384888h980.309333a163.441778 163.441778 0 0 1 163.441778 163.384888V732.615111A163.384889 163.384889 0 0 1 1143.694222 896zM490.154667 296.96H108.942222v54.385778h381.212445v-54.442667z m0 163.328H108.942222v54.442667h381.212445v-54.442667z m0 163.384889H108.942222v54.499555h381.212445v-54.499555z m408.462222-435.712a299.576889 299.576889 0 1 0 0.056889 599.153778 299.576889 299.576889 0 0 0 0-599.153778zM873.244444 725.333333a190.577778 190.577778 0 1 1 0-381.212444 190.577778 190.577778 0 1 1 0 381.212444z"  horiz-adv-x="1308" />

    
    <glyph glyph-name="kafei" unicode="&#58899;" d="M533.113705 895.683839a21.851713 21.851713 0 0 1-21.418616-22.12732c0-66.460705-25.395234-86.225677-57.877509-115.400666-32.482276-29.056872-72.3272-67.563133-72.327201-145.678085a21.851713 21.851713 0 0 1 32.71851-19.135013 21.930458 21.930458 0 0 1 10.788053 19.135013c0 64.925179 25.237744 84.060192 57.87751 113.274554 32.679138 29.253734 72.3272 68.429327 72.3272 147.804197A21.81234 21.81234 0 0 1 533.113705 895.683839z m108.943584-108.786094a21.851713 21.851713 0 0 1-21.379244-22.12732c0-42.482879-14.646553-52.6016-36.301404-71.894103s-50.908585-48.034396-50.908584-102.171522a21.891085 21.891085 0 0 1 10.788052-19.095641c6.811435-3.937246 15.119023-3.937246 21.930458 0a21.930458 21.930458 0 0 1 10.788053 19.095641c0 40.789864 14.370946 50.160508 36.301404 69.689246 21.930458 19.489365 50.908585 48.979334 50.908584 104.376379a21.81234 21.81234 0 0 1-22.127319 22.12732zM207.070402 525.464641a21.772968 21.772968 0 0 1-21.733596-21.772967v-261.118124a216.942229 216.942229 0 0 1 87.603714-174.026253h434.002575a217.454071 217.454071 0 0 1 83.036508 131.385884c49.688039 4.055363 86.068187 25.749586 106.817472 59.058683 22.363555 36.222659 27.718209 82.170314 27.954443 132.173332 0.078745 0.15749 0.078745 0.31498 0.078745 0.511842A20.670539 20.670539 0 0 1 925.10587 394.866207c0 35.789562-29.489969 65.240159-65.279531 65.240159h-65.279531V503.691674a21.772968 21.772968 0 0 1-21.733595 21.733595H207.070402z m587.476406-108.825466h65.279531c12.323579 0 21.772968-9.449389 21.772968-21.733595 0-48.191885-6.299593-87.997438-21.772968-112.998947-12.99291-20.867401-31.340474-34.135919-65.279531-37.99442v172.726962zM120.057276 25.001362a21.772968 21.772968 0 0 1-21.772968-21.772968c0-60.239857 83.272743-108.786094 152.292657-108.786094h478.690312c70.476695 0 152.33203 47.522554 152.33203 108.786094a21.772968 21.772968 0 0 1-21.772968 21.772968H120.017903z"  horiz-adv-x="1024" />

    
    <glyph glyph-name="zhibi" unicode="&#58900;" d="M779.527682 570.12131l-174.541964 174.495419L139.633571 279.218037V104.722618h174.541964l465.352147 465.398692z m137.77179 137.77179a46.358346 46.358346 0 0 1 0 65.581234l-108.914185 108.914186a46.358346 46.358346 0 0 1-65.627779 0l-91.227266-91.227267 174.541964-174.541964 91.227266 91.227267zM0 11.633571h1023.97952v-139.633571H0z"  horiz-adv-x="1024" />

    
    <glyph glyph-name="zhuangang" unicode="&#58901;" d="M247.1936 628.24448V609.28h557.79328V658.71872s35.88096 12.65664 64.14336 25.31328c49.80736 25.31328 64.14336 76.30848 43.008 76.30848-26.99264 6.9632-53.57568 15.44192-79.6672 25.31328C782.66368 806.62528 654.00832 889.69216 619.3152 896H440.03328C397.43488 883.34336 311.33696 806.62528 240.8448 787.61984c-64.14336-12.61568-92.85632-18.96448-92.85632-18.96448-14.336-12.65664 7.168-44.68736 28.672-63.65184a340.29568 340.29568 0 0 1 71.35232-32.07168v-44.6464h-0.8192z m323.66592 150.3232l-38.37952 11.01824-38.42048-16.46592 7.70048 27.77088-30.72 21.9136 38.42048 5.48864 15.7696 26.74688 23.01952-27.77088L593.92 821.78048l-30.72-16.42496 7.70048-26.74688zM266.6496 565.57568C280.90368 300.35968 401.32608 199.68 401.32608 199.68h255.5904C770.53952 300.72832 798.72 565.53472 798.72 565.53472c0 6.26688-532.48 0-532.48 0h0.4096zM652.0832 240.64H444.74368C381.58336 307.56864 347.29984 392.68352 348.16 480.4608l29.9008-5.98016 7.41376-65.90464h133.9392l22.36416 37.2736h37.2736l14.9504-37.2736h118.9888l29.85984 71.8848L757.76 486.4s-7.45472-156.0576-104.0384-245.76h-1.6384z m-194.23232-260.3008s14.49984 0 36.2496 56.1152a166.2976 166.2976 0 0 1 14.45888 59.96544h-36.20864l28.99968 56.1152h72.00768l28.99968-49.93024h-36.20864s-7.24992-93.63456 43.4176-112.2304c0 0 36.2496-38.66624 115.5072 168.3456h36.2496s144.09728-99.81952 201.23648-112.2304V-128H61.44v163.30752a596.45952 596.45952 0 0 1 223.35488 112.18944h43.49952c7.20896 0 64.75776-168.3456 129.55648-168.3456v1.2288z"  horiz-adv-x="1024" />

    
    <glyph glyph-name="shuipai" unicode="&#58902;" d="M625.225143 761.856l340.455619-347.574857c21.455238-21.455238 33.304381-52.370286 33.304381-83.334095s-11.897905-61.927619-33.304381-83.334096l-309.49181-302.323809c-42.861714-40.472381-123.806476-42.861714-166.619428 0l-380.928 378.538667C41.984 388.096 25.35619 414.232381 25.35619 502.345143V669.013333C25.35619 826.12419 56.271238 895.171048 244.345905 895.171048h154.721524c95.232-2.438095 149.991619-57.148952 226.157714-133.315048zM401.456762 614.253714c0 61.927619-52.370286 111.85981-111.85981 111.85981a111.762286 111.762286 0 0 1-111.908571-111.85981 111.762286 111.762286 0 0 1 111.908571-111.908571 111.762286 111.762286 0 0 1 111.85981 111.908571z"  horiz-adv-x="1024" />

    
    <glyph glyph-name="guopan" unicode="&#58903;" d="M263.471407 175.407407L474.074074 782.222222 132.740741 224.180148zM559.028148 886.442667S555.045926 896 549.546667 896c-6.447407 0-9.178074-10.088296-9.178074-10.088296L322.37037 145.028741s103.461926-87.267556 279.627852-83.247408c188.22637 4.28563 289.261037 133.12 289.261037 133.12L559.028148 886.442667z m-23.324444-439.561482c-2.465185-34.512593-29.961481-31.099259-36.067556-6.181926-2.844444 11.567407 0.493037 38.684444 14.260148 65.687704 10.42963 20.404148 23.134815-40.618667 21.807408-59.505778z m19.835259 226.645334c-5.082074 6.219852-1.782519 28.292741 4.93037 44.259555 5.992296 14.260148 18.469926-29.089185 16.952889-39.253333-1.061926-7.433481-12.09837-16.914963-21.883259-5.006222z m48.014222-121.325038c-0.379259-10.619259-13.274074-25.031111-28.065185-12.136296-8.571259 7.509333-4.323556 37.243259 3.223704 62.767408 6.295704 21.200593 25.334519-38.836148 24.841481-50.631112z m50.062222-92.653037c-6.826667 7.812741-7.698963 28.709926-3.185777 54.46163 3.413333 19.797333 27.799704-29.051259 29.165037-46.004148 0.758519-9.671111-14.411852-21.617778-25.97926-8.457482zM284.444444-76.420741c135.395556-61.705481 283.875556-66.635852 414.189037-22.300444 151.703704 51.617185 224.293926 152.234667 230.551704 179.048296l-19.26637 37.69837s-117.418667-149.048889-323.053037-154.699851c-216.822519-5.95437-342.774519 103.537778-342.774519 103.537777L94.814815 137.481481s13.236148-133.575111 189.629629-213.902222z"  horiz-adv-x="1024" />

    
    <glyph glyph-name="liyi" unicode="&#58904;" d="M376.742957 217.755826c41.894957-41.627826 92.026435-60.950261 141.490086-57.878261 42.74087 2.671304 85.036522 21.949217 121.188174 57.878261 31.120696 29.829565 56.676174 75.464348 73.594435 130.715826 16.918261 9.037913 38.64487 25.778087 58.546087 56.854261 68.919652 107.297391 8.503652 241.307826-92.293565 318.642087 2.137043 8.993391 3.250087 18.298435 3.250087 27.870609C682.518261 831.443478 605.273043 896 509.996522 896 414.72 896 337.474783 831.443478 337.474783 751.838609c0-7.657739 0.75687-15.181913 2.137043-22.572522C233.249391 650.818783 177.819826 508.66087 244.157217 405.370435c20.658087-32.233739 43.319652-49.107478 60.460522-57.833739 14.692174-50.220522 36.997565-93.718261 72.125218-129.736348z m299.008 508.883478c-49.107478 36.730435-107.297391 60.015304-164.730435 60.594087-58.546087 0.623304-113.797565-18.69913-160.322783-50.086956 25.377391 53.203478 87.618783 90.824348 160.278261 90.824348 77.378783 0 142.914783-42.651826 164.730435-101.286957zM216.598261 106.629565h124.349217a153.243826 153.243826 0 0 1-1.691826-22.706087c0-84.680348 68.786087-154.35687 156.538435-161.836521 2.404174 25.021217-1.246609 32.278261-15.760696 67.138782 5.030957 1.825391 10.017391 3.695304 15.003826 5.387131 11.753739-13.57913 18.565565-23.151304 22.438957-31.47687 3.917913 8.325565 10.685217 17.897739 22.438956 31.47687 5.030957-1.691826 10.017391-3.561739 15.048348-5.342609-14.246957-34.192696-17.986783-41.939478-15.849739-65.803131 82.053565 12.421565 144.829217 79.560348 144.829218 160.456348 0 7.702261-0.578783 15.315478-1.691827 22.706087h120.742957C861.584696 42.340174 887.407304-37.442783 890.212174-128H133.342609c0.75687 85.926957 26.713043 164.59687 83.255652 234.585043z m258.270609 381.284174l8.102956-8.414609a318.642087 318.642087 0 0 1 119.051131 71.590957l82.899478-50.576696c-4.897391-89.933913-22.038261-161.52487-52.802783-211.656348-28.538435-46.614261-69.542957-74.351304-124.037565-80.183652-54.494609 5.787826-95.454609 33.569391-123.993044 80.139131-29.250783 47.727304-46.258087 114.866087-52.001391 198.745043 43.542261-1.29113 85.570783 2.80487 125.595826 13.890783a326.255304 326.255304 0 0 1 86.906435 37.843478c-22.26087-19.144348-45.768348-35.706435-69.721043-51.378087z m-116.557913 58.323478c46.970435 23.462957 93.94087 47.014957 140.82226 70.522435l16.473044-20.48c-47.905391-36.507826-100.574609-52.402087-157.295304-50.086956zM284.716522 605.718261c20.658087 50.576696 59.481043 91.046957 115.044174 122.345739l13.623652-20.702609c-51.734261-28.271304-95.053913-61.885217-128.667826-101.64313z"  horiz-adv-x="1024" />

    
    <glyph glyph-name="shensuomen" unicode="&#58905;" d="M1023.832603-127.832603h-71.668282V800.52761a20.476652 20.476652 0 0 1-20.118311 20.579035H91.786593c-11.262159 0-20.118311-9.214493-20.118311-20.579035V-127.832603H0V800.52761C0 853.408564 41.311646 896 91.786593 896h840.259417C982.520958 896 1023.832603 853.408564 1023.832603 800.52761V-127.832603zM403.390046-21.609971l-289.949394-105.761908c-5.528696-2.098857-11.057392 3.225073-11.057392 10.34071V782.917689c0 7.166828 5.170355 12.132416 10.750243 10.340709l289.898201-100.745128c3.788181-1.433366 6.245379-5.682271 6.245379-10.699051v-693.134672c0.30715-4.607247-2.047665-9.214493-5.887037-10.289518z m165.860881 0l289.949394-105.761908c5.528696-2.098857 11.057392 3.225073 11.057392 10.34071V782.917689c0 7.166828-5.170355 12.132416-10.750242 10.340709l-289.898202-100.745128c-3.788181-1.433366-6.245379-5.682271-6.245379-10.699051v-693.134672c-0.30715-4.607247 2.457198-9.214493 5.887037-10.289518z"  horiz-adv-x="1024" />

    
    <glyph glyph-name="zhuanti" unicode="&#58906;" d="M250.831238 416.329143l82.066286 79.286857v-250.587429c0-19.017143 13.165714-31.695238 32.816762-31.695238 19.69981 0 32.816762 12.678095 32.816762 31.695238V495.664762l82.066285-79.286857c13.116952-12.678095 32.816762-12.678095 45.933715 0 13.165714 12.678095 13.165714 31.695238 0 44.373333L388.681143 593.92a32.475429 32.475429 0 0 1-45.933714 0L204.897524 460.702476c-13.165714-12.678095-13.165714-31.695238 0-44.373333s32.816762-12.678095 45.933714 0z m246.832762-106.691048l137.216-135.411809a33.206857 33.206857 0 0 1 46.811429 0l137.216 135.411809a30.378667 30.378667 0 0 1 0 45.153524c-13.360762 12.873143-36.815238 12.873143-46.811429 0l-80.359619-80.603429v248.198096A32.914286 32.914286 0 0 1 658.285714 554.666667c-16.725333 0-33.450667-12.873143-33.450666-32.231619v-248.246858L544.52419 354.742857a33.206857 33.206857 0 0 1-46.86019 0 30.378667 30.378667 0 0 1 0-45.153524z m462.360381-245.613714V703.975619c25.84381 0 63.975619 35.449905 63.975619 89.916952C1024 848.408381 999.619048 896 960.024381 896H64.024381C24.33219 896 0 831.975619 0 794.331429c0-37.595429 42.666667-90.35581 64.024381-90.35581 0-17.798095-0.536381-630.979048 0-640-39.69219 0-61.927619-58.514286-61.927619-101.961143C2.096762-81.432381 31.744-128 67.193905-128h890.684952c41.788952 0 66.121143 30.134857 66.121143 85.430857 0 55.247238-20.089905 106.593524-63.975619 106.593524zM926.47619 67.047619H146.285714V700.952381h780.190476v-633.904762z"  horiz-adv-x="1024" />

    


  </font>
</defs>
</svg>
